<svg t="1706254111030" class="icon" viewBox="0 0 1024 1024" version="1.1" xmlns="http://www.w3.org/2000/svg" p-id="8911" width="64" height="64"><path d="M755.712 204.8H268.288c-34.816 0-63.488 28.672-63.488 63.488v487.424c0 34.816 28.672 63.488 63.488 63.488h487.424c34.816 0 63.488-28.672 63.488-63.488V268.288c0-34.816-28.672-63.488-63.488-63.488z m-322.56 502.784c0 8.192-8.192 14.336-16.384 14.336H311.296c-8.192 0-14.336-8.192-14.336-16.384V499.712c0-8.192 8.192-14.336 16.384-14.336H419.84c8.192 0 14.336 8.192 14.336 16.384v205.824z m290.816 2.048c0 8.192-8.192 14.336-16.384 14.336H510.976c-8.192 0-14.336-8.192-14.336-16.384V499.712c0-8.192 8.192-14.336 16.384-14.336h197.632c8.192 0 14.336 8.192 14.336 16.384v207.872z m2.048-301.056c0 8.192-8.192 14.336-16.384 14.336H311.296c-8.192 0-14.336-8.192-14.336-16.384v-92.16c0-8.192 8.192-14.336 16.384-14.336H711.68c8.192 0 14.336 8.192 14.336 16.384v92.16z" fill="#1296DB" p-id="8912"></path></svg>