<?xml version="1.0" standalone="no"?><!DOCTYPE svg PUBLIC "-//W3C//DTD SVG 1.1//EN" "http://www.w3.org/Graphics/SVG/1.1/DTD/svg11.dtd"><svg t="1706173528269" class="icon" viewBox="0 0 1024 1024" version="1.1" xmlns="http://www.w3.org/2000/svg" p-id="6148" width="64" height="64" xmlns:xlink="http://www.w3.org/1999/xlink"><path d="M506.666667 106.666667l355.626666 202.666666v405.333334l-355.626666 202.666666-355.626667-202.666666v-405.333334l355.626667-202.666666z" fill="#1afa29" p-id="6149"></path><path d="M903.936 325.717333a64 64 0 0 0-32-55.466666l-323.968-187.008a64 64 0 0 0-64 0L160 270.293333A64 64 0 0 0 128 325.717333v374.101334a64 64 0 0 0 32 55.424l323.968 187.050666a64 64 0 0 0 64 0l323.968-187.050666a64 64 0 0 0 32-55.466667V325.76z m-94.122667-17.408L515.968 138.666667 222.165333 308.309333l293.802667 177.706667 293.845333-177.706667z m-325.845333 233.173334L192 364.8v334.933333l291.968 168.618667V541.44z m64 326.912l291.968-168.576v-334.933334l-291.968 176.597334v326.912z" fill="#1afa29" p-id="6150"></path></svg>